<svg width="111" height="110" viewBox="0 0 111 110" fill="none" xmlns="http://www.w3.org/2000/svg">
<rect x="0.921875" width="110" height="110" rx="55" fill="#FEDE4B"/>
<path d="M69.1915 53.2811C68.7223 53.2811 68.2723 53.4618 67.9405 53.7833C67.6087 54.1049 67.4223 54.541 67.4223 54.9957C67.4223 55.4505 67.6087 55.8866 67.9405 56.2081C68.2723 56.5297 68.7223 56.7103 69.1915 56.7103C70.8338 56.7103 72.4088 57.3426 73.5701 58.468C74.7314 59.5934 75.3838 61.1198 75.3838 62.7114C75.3838 64.303 74.7314 65.8294 73.5701 66.9548C72.4088 68.0802 70.8338 68.7125 69.1915 68.7125H53.9763C53.5379 66.6309 52.3175 64.7812 50.5518 63.522C48.7862 62.2629 46.6009 61.684 44.4199 61.8975C42.2388 62.111 40.2172 63.1018 38.747 64.6778C37.2769 66.2537 36.4629 68.3025 36.4629 70.427C36.4629 72.5516 37.2769 74.6004 38.747 76.1763C40.2172 77.7523 42.2388 78.7431 44.4199 78.9566C46.6009 79.1701 48.7862 78.5912 50.5518 77.332C52.3175 76.0729 53.5379 74.2232 53.9763 72.1416H69.1915C71.7723 72.1416 74.2473 71.1481 76.0722 69.3796C77.897 67.6111 78.9222 65.2124 78.9222 62.7114C78.9222 60.2103 77.897 57.8117 76.0722 56.0432C74.2473 54.2747 71.7723 53.2811 69.1915 53.2811ZM48.3237 70.7785L45.6698 73.3504C45.5055 73.5098 45.3104 73.6363 45.0956 73.7226C44.8808 73.8089 44.6506 73.8533 44.4181 73.8533C44.1856 73.8533 43.9554 73.8089 43.7406 73.7226C43.5258 73.6363 43.3307 73.5098 43.1664 73.3504L42.2818 72.4931C41.9836 72.2025 41.8026 71.818 41.7717 71.4093C41.7408 71.0005 41.8619 70.5946 42.1133 70.2649C42.3646 69.9353 42.7295 69.7039 43.1418 69.6125C43.554 69.5211 43.9864 69.5759 44.3606 69.7669L45.8202 68.3524C46.1522 68.0307 46.6025 67.8499 47.0719 67.8499C47.5414 67.8499 47.9917 68.0307 48.3237 68.3524C48.6556 68.6741 48.8421 69.1105 48.8421 69.5655C48.8421 70.0205 48.6556 70.4568 48.3237 70.7785Z" fill="#18323A"/>
<path d="M57.8412 56.7103L57.3193 57.2161C56.9874 57.5379 56.8009 57.9742 56.8009 58.4292C56.8009 58.8842 56.9874 59.3205 57.3193 59.6423C57.6513 59.964 58.1016 60.1447 58.571 60.1447C59.0405 60.1447 59.4908 59.964 59.8228 59.6423L63.3612 56.2131C63.5257 56.0538 63.6562 55.8647 63.7452 55.6566C63.8343 55.4485 63.8801 55.2253 63.8801 55C63.8801 54.7747 63.8343 54.5516 63.7452 54.3434C63.6562 54.1353 63.5257 53.9462 63.3612 53.7869L59.8228 50.3578C59.4908 50.036 59.0405 49.8553 58.571 49.8553C58.1016 49.8553 57.6513 50.036 57.3193 50.3578C56.9874 50.6795 56.8009 51.1158 56.8009 51.5708C56.8009 52.0258 56.9874 52.4622 57.3193 52.7839L57.8412 53.2897H42.6525C41.0103 53.2897 39.4352 52.6575 38.274 51.532C37.1127 50.4066 36.4603 48.8802 36.4603 47.2886C36.4603 45.6971 37.1127 44.1707 38.274 43.0452C39.4352 41.9198 41.0103 41.2876 42.6525 41.2876H57.8678C58.3062 43.3692 59.5266 45.2188 61.2923 46.478C63.0579 47.7371 65.2431 48.3161 67.4242 48.1025C69.6053 47.889 71.6269 46.8982 73.0971 45.3223C74.5672 43.7463 75.3812 41.6975 75.3812 39.573C75.3812 37.4485 74.5672 35.3996 73.0971 33.8237C71.6269 32.2477 69.6053 31.257 67.4242 31.0434C65.2431 30.8299 63.0579 31.4088 61.2923 32.668C59.5266 33.9271 58.3062 35.7768 57.8678 37.8584H42.6525C40.0718 37.8584 37.5968 38.8519 35.7719 40.6204C33.9471 42.389 32.9219 44.7876 32.9219 47.2886C32.9219 49.7897 33.9471 52.1883 35.7719 53.9568C37.5968 55.7253 40.0718 56.7189 42.6525 56.7189L57.8412 56.7103Z" fill="#18323A"/>
</svg>
