<svg width="110" height="111" viewBox="0 0 110 111" fill="none" xmlns="http://www.w3.org/2000/svg">
<rect y="0.043457" width="110" height="110" rx="55" fill="#FEDE4B"/>
<path d="M70.3711 53.4098C70.0177 53.2638 69.6644 53.1178 69.311 52.9718L67.6958 52.4365C62.5472 51.0252 56.6414 51.3172 54.6728 51.4632V53.1178C54.6728 54.3345 53.8147 55.5024 52.6033 55.8431C52.6033 55.8431 52.5528 55.8431 52.5023 55.8431C50.988 56.2324 49.4233 55.4538 48.9185 54.0425C48.4642 52.7771 48.2118 51.4632 48.1614 50.1492L46.748 50.7818C45.7385 51.2198 44.9308 51.9498 44.4261 52.8745L43.9213 53.7018C43.3156 54.7724 42.2556 55.5024 40.9937 55.7458L38.9746 56.0864V68.9343L42.1546 68.9829L42.5584 67.085C42.7099 66.355 43.1642 65.771 43.8204 65.333C44.4766 64.9437 45.2337 64.7977 45.9909 64.9437C46.6471 65.0897 47.2023 65.4303 47.6061 65.9656C48.2623 65.2843 49.2718 64.9437 50.2814 65.1383C51.0385 65.2843 51.6442 65.7223 52.048 66.355C52.1995 66.5496 52.25 66.7443 52.3509 66.9876C52.9566 66.6956 53.6128 66.5983 54.269 66.7443C55.2786 66.9876 56.0357 67.669 56.3386 68.5936C56.9443 68.3016 57.6005 68.2043 58.2567 68.3503C59.0138 68.4963 59.6195 68.9343 60.0738 69.5669C60.4272 70.1023 60.5786 70.7349 60.5281 71.3676L62.7491 72.0489C63.8091 72.2436 64.9196 71.5622 65.172 70.5403C65.2729 70.0049 65.172 69.5183 64.9196 69.0803C64.6167 68.6423 64.2129 68.3503 63.7081 68.2529L62.85 68.0583C62.4462 67.9609 62.1938 67.6203 62.2948 67.231C62.3958 66.8416 62.7491 66.5983 63.1529 66.6956L64.011 66.8903L64.7177 67.0363C65.8282 67.2796 66.8882 66.5983 67.1406 65.5276V65.479C67.3425 64.457 66.6358 63.435 65.5758 63.1917L63.9605 62.851C63.5567 62.7537 63.3043 62.413 63.4053 62.0237C63.5062 61.6344 63.8596 61.391 64.2634 61.4884L66.7367 62.0237C67.7967 62.267 68.9577 61.537 69.1596 60.515C69.2606 59.9797 69.1596 59.4931 68.9072 59.0551C68.6044 58.6171 68.2006 58.3251 67.6958 58.2277L65.1215 57.6437C64.9196 57.5951 64.7682 57.4977 64.6672 57.3517C64.5662 57.2057 64.5158 57.0111 64.5662 56.8164C64.6672 56.4271 65.0205 56.1838 65.4243 56.2811L68.6044 56.9624C69.2101 57.1084 69.8158 56.9624 70.3206 56.6218C70.7749 56.3298 71.0777 55.8918 71.1787 55.4051C71.2796 54.9184 71.1787 54.4318 70.8758 53.9938C70.7749 53.7505 70.573 53.5558 70.3711 53.4098Z" fill="#18323A"/>
<path d="M54.6222 46.0612L51.9469 46.6938C50.5841 47.0345 49.6755 48.1538 49.625 49.4678V49.6625C49.625 50.9764 49.8774 52.3391 50.3317 53.6044C50.5841 54.3344 51.4422 54.7237 52.1993 54.5291C52.805 54.3344 53.2593 53.7991 53.2088 53.1664V50.8304C53.2088 50.5871 53.3603 50.3438 53.5622 50.2464C53.6631 50.1978 53.7641 50.1491 53.865 50.1491C54.3193 50.1005 64.2127 49.0785 71.1785 52.1931L73.45 48.0078L61.1337 42.5085C59.3165 44.2605 57.0955 45.4772 54.6222 46.0612Z" fill="#18323A"/>
<path d="M58.1051 69.8102C57.7518 69.7128 57.348 69.8102 57.0451 70.0048C56.7423 70.1995 56.4899 70.4915 56.4394 70.8321L55.8337 73.4114C55.6823 74.1414 56.1366 74.8714 56.8937 75.0174C57.6004 75.1634 58.408 74.6768 58.5594 73.9954L59.1652 71.4161C59.2661 71.0755 59.1652 70.6861 58.9633 70.3941C58.7613 70.1022 58.4585 69.9075 58.1051 69.8102Z" fill="#18323A"/>
<path d="M54.0679 68.2529C53.7146 68.1556 53.3108 68.2529 53.0079 68.4476C52.7051 68.6422 52.4527 68.9342 52.4022 69.2749L51.6451 72.5355C51.5441 72.8762 51.6451 73.2655 51.847 73.5575C52.0489 73.8495 52.3517 74.0928 52.7051 74.1415C53.4118 74.2875 54.2194 73.8008 54.3708 73.1195L55.128 69.8589C55.3299 69.1289 54.8251 68.3989 54.0679 68.2529Z" fill="#18323A"/>
<path d="M50.0807 66.6469C49.7274 66.5496 49.3236 66.6469 49.0207 66.8416C48.7178 67.0363 48.4655 67.3283 48.415 67.6689L47.5064 71.6596C47.4054 72.0002 47.5064 72.3895 47.7083 72.6815C47.9102 72.9735 48.2131 73.2169 48.5664 73.2655C49.2731 73.4115 50.0807 72.9249 50.2321 72.2435L51.1407 68.2529C51.2417 67.9123 51.1407 67.5229 50.9388 67.2309C50.7369 66.9389 50.434 66.7443 50.0807 66.6469Z" fill="#18323A"/>
<path d="M45.7398 66.4522C45.3865 66.3549 44.9827 66.4522 44.6798 66.6469C44.377 66.8416 44.1246 67.1336 44.0741 67.4742L43.3169 70.7349C43.216 71.0755 43.3169 71.4649 43.5189 71.7568C43.7208 72.0488 44.0236 72.2922 44.377 72.3408C45.1341 72.4868 45.8913 72.0488 46.0427 71.3189L46.7998 68.0582C47.0017 67.3769 46.497 66.6469 45.7398 66.4522Z" fill="#18323A"/>
<path d="M36.3 54.1396H32.2619C31.5552 54.1396 31 54.675 31 55.3563V70.8321C31 71.5134 31.5552 72.0488 32.2619 72.0488H36.3C36.6534 72.0488 36.9562 71.9028 37.2086 71.7081C37.461 71.4648 37.562 71.1728 37.562 70.8808V55.405C37.562 54.675 37.0067 54.1396 36.3 54.1396ZM34.3315 70.0048C33.5743 70.0048 33.0191 69.4208 33.0191 68.7395C33.0191 68.0095 33.6248 67.4742 34.3315 67.4742C35.0886 67.4742 35.6438 68.0581 35.6438 68.7395C35.6438 69.4208 35.0381 70.0048 34.3315 70.0048Z" fill="#18323A"/>
<path d="M78.2968 41.6812L63.7091 35.16C63.4062 35.014 63.0529 35.014 62.75 35.1113C62.4471 35.2086 62.1948 35.452 62.0433 35.744L60.3776 39.2479C60.0747 39.8319 60.3776 40.5619 60.9833 40.8539L75.5711 47.3265C76.1768 47.6185 76.9339 47.3265 77.2368 46.7425L78.9025 43.2385C79.1549 42.6545 78.9025 41.9732 78.2968 41.6812ZM76.1263 44.2118C75.8234 44.8445 75.0158 45.1365 74.3596 44.8445C73.7034 44.5525 73.4006 43.7739 73.7034 43.1412C74.0063 42.5085 74.8139 42.2165 75.4701 42.5085C76.1768 42.8005 76.4292 43.5305 76.1263 44.2118Z" fill="#18323A"/>
</svg>
