<svg width="111" height="110" viewBox="0 0 111 110" fill="none" xmlns="http://www.w3.org/2000/svg">
<rect x="0.921875" width="110" height="110" rx="55" fill="#FEDE4B"/>
<path fill-rule="evenodd" clip-rule="evenodd" d="M72.0672 57.3959L71.025 60.7391H67.6522C67.1389 60.7391 66.6838 61.0837 66.5252 61.5926C66.3665 62.1017 66.5403 62.6592 66.9557 62.9738L69.6843 65.04L68.6421 68.3831C68.4834 68.892 68.6571 69.4497 69.0725 69.764C69.4879 70.0786 70.0505 70.0786 70.4658 69.764L73.1945 67.6979L75.9231 69.764C76.3385 70.0786 76.9008 70.0786 77.3162 69.764C77.7316 69.4497 77.9056 68.892 77.7469 68.3831L76.7047 65.04L79.4333 62.9738C79.8487 62.6592 80.0224 62.1017 79.8638 61.5926C79.7051 61.0837 79.25 60.7391 78.7365 60.7391H75.3638L74.3217 57.3959C74.1629 56.887 73.708 56.5424 73.1945 56.5424C72.681 56.5424 72.2259 56.887 72.0672 57.3959ZM37.522 57.3959L36.4798 60.7391H33.107C32.5937 60.7391 32.1386 61.0837 31.98 61.5926C31.8213 62.1017 31.9951 62.6592 32.4104 62.9738L35.1391 65.04L34.0968 68.3831C33.9382 68.892 34.1119 69.4497 34.5273 69.764C34.9427 70.0786 35.5052 70.0786 35.9206 69.764L38.6493 67.6979L41.3779 69.764C41.7933 70.0786 42.3556 70.0786 42.771 69.764C43.1864 69.4497 43.3603 68.892 43.2017 68.3831L42.1594 65.04L44.8881 62.9738C45.3035 62.6592 45.4772 62.1017 45.3186 61.5926C45.1599 61.0837 44.7048 60.7391 44.1913 60.7391H40.8186L39.7763 57.3959C39.6177 56.887 39.1627 56.5424 38.6493 56.5424C38.1358 56.5424 37.6807 56.887 37.522 57.3959ZM54.8668 46.8743L52.5716 54.2363H45.1444C44.6309 54.2363 44.176 54.5809 44.0172 55.09C43.8585 55.5989 44.0325 56.1564 44.4479 56.471L50.4566 61.021L48.1614 68.3831C48.0027 68.8922 48.1767 69.4497 48.5919 69.764C49.0072 70.0786 49.5698 70.0786 49.9852 69.7643L55.9939 65.214L62.0027 69.7643C62.4181 70.0786 62.9805 70.0786 63.3958 69.764C63.8112 69.4497 63.9852 68.8922 63.8265 68.3831L61.5313 61.021L67.54 56.471C67.9554 56.1564 68.1292 55.5989 67.9705 55.09C67.8119 54.5809 67.357 54.2363 66.8435 54.2363H59.4163L57.1211 46.8743C56.9624 46.3654 56.5073 46.0208 55.9939 46.0208C55.4806 46.0208 55.0255 46.3654 54.8668 46.8743ZM38.0051 49.8951V52.5654C38.0051 53.0412 38.3758 53.4276 38.8325 53.4276C39.2892 53.4276 39.6599 53.0412 39.6599 52.5654V49.8951C39.6599 49.4191 39.2892 49.0328 38.8325 49.0328C38.3758 49.0328 38.0051 49.4191 38.0051 49.8951ZM72.1653 49.8951V52.5654C72.1653 53.0412 72.5361 53.4276 72.9927 53.4276C73.4494 53.4276 73.8202 53.0412 73.8202 52.5654V49.8951C73.8202 49.4191 73.4494 49.0328 72.9927 49.0328C72.5361 49.0328 72.1653 49.4191 72.1653 49.8951ZM67.3657 50.5052L68.6466 52.8177C68.875 53.2297 69.3815 53.3713 69.7768 53.1333C70.1724 52.8953 70.308 52.3676 70.0796 51.9553L68.7987 49.6429C68.5704 49.2306 68.064 49.0893 67.6685 49.3273C67.2732 49.5653 67.1373 50.093 67.3657 50.5052ZM43.0266 49.6429L41.7454 51.9553C41.5173 52.3676 41.6529 52.8953 42.0484 53.1333C42.4438 53.3713 42.9503 53.2297 43.1785 52.8177L44.4596 50.5052C44.6879 50.093 44.5521 49.5653 44.1568 49.3273C43.7612 49.0893 43.2549 49.2306 43.0266 49.6429ZM77.1868 49.6429L75.9056 51.9553C75.6775 52.3676 75.8131 52.8953 76.2087 53.1333C76.604 53.3713 77.1105 53.2297 77.3387 52.8177L78.6198 50.5052C78.8481 50.093 78.7123 49.5653 78.317 49.3273C77.9214 49.0893 77.4151 49.2306 77.1868 49.6429ZM33.2055 50.5052L34.4864 52.8177C34.7148 53.2297 35.2213 53.3713 35.6166 53.1333C36.0122 52.8953 36.1478 52.3676 35.9194 51.9553L34.6385 49.6429C34.4102 49.2306 33.9038 49.0893 33.5083 49.3273C33.113 49.5653 32.9771 50.093 33.2055 50.5052ZM55.0852 40.8624V43.5326C55.0852 44.0084 55.4559 44.3948 55.9126 44.3948C56.3693 44.3948 56.74 44.0084 56.74 43.5326V40.8624C56.74 40.3864 56.3693 40 55.9126 40C55.4559 40 55.0852 40.3864 55.0852 40.8624ZM50.2856 41.4725L51.5665 43.7849C51.7949 44.197 52.3014 44.3385 52.6967 44.1005C53.0923 43.8625 53.2279 43.3348 52.9995 42.9226L51.7186 40.6101C51.4903 40.1978 50.9839 40.0565 50.5884 40.2945C50.1931 40.5325 50.0572 41.0602 50.2856 41.4725ZM60.1067 40.6101L58.8255 42.9226C58.5974 43.3348 58.733 43.8625 59.1286 44.1005C59.5239 44.3385 60.0304 44.197 60.2586 43.7849L61.5397 41.4725C61.768 41.0602 61.6322 40.5325 61.2369 40.2945C60.8413 40.0565 60.335 40.1978 60.1067 40.6101Z" fill="#18323A"/>
</svg>
