<svg width="111" height="110" viewBox="0 0 111 110" fill="none" xmlns="http://www.w3.org/2000/svg">
<rect x="0.921875" width="110" height="110" rx="55" fill="#FEDE4B"/>
<path d="M73.9219 45C73.9219 47.7614 71.6833 50 68.9219 50C66.1605 50 63.9219 47.7614 63.9219 45C63.9219 42.2386 66.1605 40 68.9219 40C71.6833 40 73.9219 42.2386 73.9219 45Z" fill="#18323A"/>
<path d="M47.9219 45C47.9219 47.7614 45.6833 50 42.9219 50C40.1605 50 37.9219 47.7614 37.9219 45C37.9219 42.2386 40.1605 40 42.9219 40C45.6833 40 47.9219 42.2386 47.9219 45Z" fill="#18323A"/>
<path d="M61.9219 42C61.9219 45.3138 59.2356 48 55.9219 48C52.6081 48 49.9219 45.3138 49.9219 42C49.9219 38.6862 52.6081 36 55.9219 36C59.2356 36 61.9219 38.6862 61.9219 42Z" fill="#18323A"/>
<path d="M68.9219 52C67.9219 52 65.7219 52.4 64.9219 53C64.9219 53 65.9219 55.2 65.9219 58C65.9219 58 63.5219 50 55.9219 50C48.3219 50 45.9219 58 45.9219 58C45.9219 55.2 46.9219 53 46.9219 53C46.1219 52.4 43.9219 52 42.9219 52C39.5219 52 35.9219 56 35.9219 58.6V70C35.9219 72.2 37.7219 74 39.9219 74H45.7219C47.5219 72.2 50.7219 70 55.9219 70C61.1219 70 64.3219 72.2 66.1219 74H71.9219C74.1219 74 75.9219 72.2 75.9219 70V58.6C75.9219 56 71.9219 52 68.9219 52ZM55.9219 68C53.1219 68 50.9219 65.8 50.9219 63C50.9219 60.2 53.1219 58 55.9219 58C58.7219 58 60.9219 60.2 60.9219 63C60.9219 65.8 58.7219 68 55.9219 68Z" fill="#18323A"/>
</svg>
