<svg width="78" height="79" viewBox="0 0 78 79" fill="none" xmlns="http://www.w3.org/2000/svg">
<g filter="url(#filter0_d_35_286)">
<circle cx="32" cy="32" r="31.5" transform="matrix(-1 0 0 1 71 3.1626)" stroke="#FEDE4B" shape-rendering="crispEdges"/>
</g>
<path d="M43.0993 27.1014C43.2406 27.2424 43.3526 27.4099 43.4291 27.5942C43.5056 27.7786 43.5449 27.9762 43.5449 28.1757C43.5449 28.3753 43.5056 28.5729 43.4291 28.7573C43.3526 28.9416 43.2406 29.109 43.0993 29.25L37.1869 35.1624L43.0993 41.0748C43.3842 41.3597 43.5443 41.7461 43.5443 42.1491C43.5443 42.552 43.3842 42.9384 43.0993 43.2234C42.8144 43.5083 42.4279 43.6683 42.025 43.6683C41.6221 43.6683 41.2356 43.5083 40.9507 43.2234L33.9564 36.2291C33.8152 36.0881 33.7031 35.9206 33.6266 35.7363C33.5502 35.552 33.5108 35.3544 33.5108 35.1548C33.5108 34.9552 33.5502 34.7576 33.6266 34.5733C33.7031 34.3889 33.8152 34.2215 33.9564 34.0805L40.9507 27.0862C41.5298 26.5072 42.505 26.5072 43.0993 27.1014Z" fill="#FEDE4B"/>
<defs>
<filter id="filter0_d_35_286" x="0" y="0.162598" width="78" height="78" filterUnits="userSpaceOnUse" color-interpolation-filters="sRGB">
<feFlood flood-opacity="0" result="BackgroundImageFix"/>
<feColorMatrix in="SourceAlpha" type="matrix" values="0 0 0 0 0 0 0 0 0 0 0 0 0 0 0 0 0 0 127 0" result="hardAlpha"/>
<feOffset dy="4"/>
<feGaussianBlur stdDeviation="3.5"/>
<feComposite in2="hardAlpha" operator="out"/>
<feColorMatrix type="matrix" values="0 0 0 0 0 0 0 0 0 0 0 0 0 0 0 0 0 0 0.25 0"/>
<feBlend mode="normal" in2="BackgroundImageFix" result="effect1_dropShadow_35_286"/>
<feBlend mode="normal" in="SourceGraphic" in2="effect1_dropShadow_35_286" result="shape"/>
</filter>
</defs>
</svg>
