<svg width="111" height="110" viewBox="0 0 111 110" fill="none" xmlns="http://www.w3.org/2000/svg">
<rect x="0.921875" width="110" height="110" rx="55" fill="#FEDE4B"/>
<path d="M58.0786 72.1142C57.9266 72.1142 57.8005 72.0547 57.7059 71.9856C57.8166 71.6836 57.9119 71.3259 57.9315 71.0552C57.9427 70.8939 57.9532 70.5756 57.9098 70.1911L58.5627 71.2151C58.7301 71.4538 58.7035 71.6189 58.7 71.6368C58.6559 71.8428 58.389 72.0324 58.2734 72.0904C58.2404 72.0986 58.1564 72.1142 58.0786 72.1142ZM61.1016 71.1943C60.8662 71.1943 60.6525 71.1155 60.3737 70.731C59.9569 70.1651 57.3997 66.3337 57.3738 66.295L57.3535 66.2631L57.3283 66.2348C57.1721 66.0593 56.9402 65.9582 56.6922 65.9582C56.6018 65.9582 56.4673 65.9723 56.3342 66.0362C55.9397 66.2132 55.8375 66.6832 55.9467 67.0521L55.9671 67.1213L56.1569 67.4425L56.3216 67.7006C56.0497 67.586 55.7555 67.5273 55.4444 67.5273C55.216 67.5273 55.0038 67.5585 54.8188 67.6024C54.6226 66.6751 54.0678 65.9983 53.1879 65.625C52.9034 65.5075 52.5959 65.4488 52.2701 65.4488C51.8848 65.4488 51.5205 65.5313 51.2227 65.6302C50.8942 64.163 49.4251 63.4327 49.3508 63.397C49.004 63.2706 48.6929 63.2178 48.3742 63.2178C47.8396 63.2178 47.462 63.368 47.4214 63.3858C46.746 63.6275 45.9369 64.5192 45.4451 65.126C43.124 62.0145 39.879 60.516 39.219 60.2349L39.0544 60.1643H39.0313L38.9605 60.1397L37.8998 59.4407L36.5134 62.7611C31.8146 60.345 27.5824 57.0974 23.9219 53.1002C25.4702 46.9746 28.5478 41.4276 32.848 37.0013C35.5109 41.0915 39.088 44.409 43.2502 46.6452L42.0648 49.4733L45.0506 51.154L45.2034 51.1414C46.3775 51.0425 47.668 50.7361 48.5423 50.4974C47.8943 51.9594 46.6802 54.206 46.3096 54.8545C46.0202 55.3141 46.173 55.848 46.3103 56.0875C46.3383 56.144 46.7348 56.8832 47.8214 57.5458C48.2516 57.8054 48.7714 57.9348 49.3697 57.9348C50.4542 57.9348 51.5401 57.5101 52.0901 57.1145C53.4506 56.1366 54.6591 54.441 54.7102 54.3704L54.7894 54.3339L54.8405 54.3488L54.94 54.3548C57.0845 54.4834 58.9753 55.0501 58.9936 55.0553C60.2574 55.5357 62.3697 56.8617 63.768 57.7384C64.3943 58.1303 64.8455 58.4144 65.0613 58.52C65.4515 58.7111 65.752 59.1774 65.8277 59.3254C66.9465 61.3943 68.6412 64.54 68.7526 64.7839L68.8094 64.9051C68.9775 65.2606 69.0959 65.5573 68.9642 65.8697C68.8122 66.2259 68.3218 66.6728 68.0485 66.8706C67.9855 66.9071 67.8972 66.9353 67.8118 66.9353C67.6135 66.9353 67.4559 66.7702 67.4545 66.7688L64.0798 61.9141C64.0651 61.8933 63.8241 61.5579 63.5053 61.2285C63.2888 61.0054 63.0254 60.8834 62.7627 60.8834C62.4796 60.8834 62.2323 61.0269 62.102 61.2679C61.9493 61.5557 61.9976 61.8673 62.0159 61.9558L62.0397 62.0725L62.1069 62.1684C63.5333 64.2143 65.8676 67.6017 66.0589 67.9809C66.1962 68.2553 66.143 68.5513 66.0981 68.6287C65.9959 68.8064 65.8319 69.0949 65.0963 69.3166C64.9142 69.3716 64.7488 69.3998 64.6052 69.3998C64.2941 69.3998 64.1947 69.2667 64.1905 69.2615C64.0587 69.06 61.2235 64.7267 61.0175 64.4329C60.8179 64.1377 60.682 63.9354 60.4529 63.6773C60.291 63.4996 60.0858 63.4044 59.8693 63.4044C59.4594 63.4044 59.0608 63.7569 59.016 64.1577C58.9873 64.5497 59.1743 64.8546 59.2325 64.9386C60.6946 67.0484 62.2835 69.4764 62.4145 69.8892C62.584 70.4462 62.3907 70.6901 62.3683 70.7161C62.2688 70.8121 61.7048 71.1281 61.2859 71.1794C61.2165 71.1898 61.1576 71.1943 61.1016 71.1943Z" fill="#18323A"/>
<path d="M47.0539 69.9317C46.8024 69.9317 46.5614 69.847 46.3589 69.6863L46.1873 69.5525C45.9771 69.3851 45.8272 69.0646 45.7782 68.6727C45.7214 68.2168 45.8139 67.7595 46.0199 67.4806C46.3281 67.0649 47.2949 65.8438 47.2949 65.8438C47.5345 65.504 47.8736 65.3232 48.2442 65.3232C48.4936 65.3232 48.7325 65.4073 48.9343 65.5672L49.1052 65.701C49.5914 66.087 49.4996 67.0181 49.2832 67.5245C49.1388 67.8681 48.6912 68.4682 48.364 68.9062C48.2141 69.1078 48.0768 69.2922 47.9759 69.4387C47.7608 69.7518 47.4238 69.9317 47.0539 69.9317Z" fill="#18323A"/>
<path d="M50.906 71.7463C50.6734 71.7463 50.4527 71.6689 50.2684 71.5239L49.9511 71.2666C49.7164 71.0807 49.5784 70.8338 49.5489 70.549C49.5188 70.2612 49.6036 69.9585 49.7871 69.6967L51.011 67.8428C51.1687 67.5885 51.5386 67.4219 51.9211 67.4219C52.1705 67.4219 52.3926 67.4895 52.546 67.6137L52.7127 67.7454C53.201 68.1321 53.3033 68.8698 52.939 69.3896C52.691 69.8373 52.0752 70.9364 51.8258 71.2711C51.6037 71.5678 51.2597 71.7463 50.906 71.7463Z" fill="#18323A"/>
<path d="M54.3217 72.9999C54.1605 72.9999 54.0218 72.965 53.9216 72.8995L53.8032 72.8044C53.3563 72.4504 53.2631 71.7744 53.5966 71.2992C53.7759 71.0523 54.295 70.3436 54.4863 70.1168C54.7483 69.8066 55.0685 69.6207 55.3424 69.6207C55.5365 69.6207 55.706 69.7152 55.8594 69.9108L55.9274 70.0193C56.2377 70.7251 56.1214 71.198 55.975 71.6219C55.8867 71.8792 55.6373 72.3239 55.4972 72.4742C55.2107 72.7843 54.7287 72.9999 54.3217 72.9999Z" fill="#18323A"/>
<path d="M43.0099 67.4716C42.7752 67.4716 42.5146 67.4255 42.2021 67.0938C42.0228 66.9042 41.9849 66.3665 42.1117 65.814C42.1762 65.5388 42.3892 65.1885 42.6925 64.8494C43.0876 65.1945 43.7714 65.8712 44.3389 66.8484C44.1728 67.0819 43.8429 67.4218 43.309 67.4552C43.171 67.4656 43.0932 67.4716 43.0099 67.4716Z" fill="#18323A"/>
<path d="M69.8382 62.9673C68.8889 61.2338 68.3473 60.0908 68.0671 59.4542C68.7614 59.2036 69.0234 58.6934 69.0577 58.6198L69.5593 57.5541L68.4671 57.8271C68.2843 57.8732 68.0713 57.8962 67.8331 57.8962C67.6096 57.8962 67.4121 57.8754 67.2902 57.8583C64.9649 55.7523 59.8605 53.2 59.6405 53.0914C58.8762 52.7724 56.0508 52.4429 54.8808 52.3165C54.8325 51.7781 54.6615 51.4539 54.6363 51.4093L54.0198 50.3004L53.6793 51.5364C52.8386 54.5884 50.6234 55.7047 50.6003 55.7158C50.2521 55.8698 49.8962 55.9516 49.562 55.9516C48.7304 55.9516 48.2807 55.4451 48.2323 55.3522C48.2281 55.3351 48.226 55.318 48.2246 55.3038C49.155 53.9332 51.3387 48.8124 51.4333 48.5908L51.4858 48.6004L51.5075 48.6287C53.6191 48.5394 58.0818 48.2784 58.6562 48.245C58.7137 48.2673 58.8167 48.3223 58.879 48.3632C61.9847 50.7608 64.305 51.1579 64.4031 51.1728L64.4633 51.1832L67.487 50.9229L69.9699 49.5627L70.8575 48.976L69.628 46.0511C73.3439 43.8313 76.5651 40.7183 79.0003 37C83.3054 41.4367 86.3802 46.9867 87.9208 53.107C84.5412 56.7956 80.6621 59.8528 76.3802 62.2021L75.0722 59.0697L72.0247 60.5556L71.9714 60.6024C71.2716 61.2204 70.3797 62.2906 69.8382 62.9673Z" fill="#18323A"/>
</svg>
