<svg width="111" height="110" viewBox="0 0 111 110" fill="none" xmlns="http://www.w3.org/2000/svg">
<rect x="0.921875" width="110" height="110" rx="55" fill="#FEDE4B"/>
<path d="M73.7874 55.7985C73.5297 55.7985 73.2839 55.8527 73.0541 55.937L63.1826 62.1582C62.5137 62.5797 61.3328 62.9202 60.5426 62.9202H52.3506C51.9555 62.9202 51.6364 62.5995 51.6364 62.2003C51.6364 61.8038 51.9559 61.4808 52.3506 61.4808H60.2083C61.3906 61.4808 62.351 60.5132 62.351 59.3206C62.351 58.1285 61.3906 57.1613 60.2083 57.1613H50.2079C49.4181 57.1613 48.3279 57.6169 47.7692 58.1791L44.4941 61.4808V71.5606H59.1146C60.6919 71.5606 62.9226 70.6969 64.095 69.6338L75.2959 59.4725H75.2941C75.6825 59.0809 75.9221 58.5443 75.9221 57.9507C75.9221 56.7639 74.9657 55.7985 73.7874 55.7985Z" fill="#18323A"/>
<path d="M43.0641 71.5601V61.4804C43.0641 60.6847 42.425 60.0405 41.6361 60.0405H37.3499C36.561 60.0405 35.9219 60.6843 35.9219 61.4804V71.5601C35.9219 72.3558 36.561 73 37.3499 73H41.6365C42.4254 73 43.0641 72.3558 43.0641 71.5601Z" fill="#18323A"/>
<path d="M57.2039 42.7603H62.9181C63.2252 42.7603 63.499 42.564 63.5963 42.2684L65.0248 37.9484C65.1159 37.6729 65.0332 37.3687 64.8146 37.1774C64.5955 36.9861 64.2866 36.9467 64.0275 37.0762L61.6306 38.2853L60.5661 37.211C60.287 36.9297 59.8346 36.9297 59.5559 37.211L58.4915 38.2853L56.0955 37.0766C55.8359 36.9471 55.5248 36.9866 55.3084 37.1779C55.0892 37.3691 55.007 37.6729 55.0981 37.9488L56.5266 42.2688C56.6239 42.5636 56.8972 42.7603 57.2039 42.7603Z" fill="#18323A"/>
<path d="M51.6357 52.7388C51.6357 53.8328 51.9522 54.8457 52.4709 55.7202H60.2077C61.8957 55.7202 63.3064 56.9096 63.6757 58.4991C66.4059 58.0179 68.4855 55.6301 68.4855 52.7388C68.4855 51.3527 67.7886 49.7211 66.7251 48.4502L63.1708 44.2006H56.9513L53.3971 48.4502C52.334 49.7211 51.6357 51.3527 51.6357 52.7388ZM58.0904 48.0452C58.3024 47.4574 58.7891 47.0242 59.3455 46.8106V46.6475C59.3455 46.2483 59.6651 45.928 60.0597 45.928C60.4544 45.928 60.774 46.2488 60.774 46.6475V46.7877C61.0704 46.8916 61.3455 47.0583 61.5744 47.2912C61.766 47.4798 61.9193 47.7079 62.0264 47.9605C62.1833 48.3261 62.0157 48.7481 61.6544 48.9054C61.2944 49.0653 60.87 48.8946 60.7153 48.5317C60.6797 48.4471 60.6291 48.3736 60.5664 48.3091C60.4277 48.1711 60.2495 48.0949 60.0597 48.0949H60.0566C59.7757 48.0949 59.5264 48.2723 59.4317 48.5367C59.37 48.7055 59.3793 48.8879 59.454 49.0487C59.5286 49.2118 59.662 49.3327 59.8295 49.3941L60.7802 49.7431C61.306 49.9375 61.7255 50.3223 61.9615 50.8344C62.1988 51.3438 62.222 51.9176 62.0313 52.4463C61.8148 53.0452 61.3433 53.4896 60.7744 53.7006V53.8467C60.7744 54.2436 60.4548 54.5666 60.0602 54.5666C59.6655 54.5666 59.346 54.2431 59.346 53.8467V53.7065C59.0504 53.5998 58.7766 53.4336 58.5482 53.2029C58.3548 53.0116 58.2024 52.7863 58.0944 52.5336C57.938 52.1681 58.1055 51.7434 58.4677 51.5861C58.826 51.4257 59.2504 51.5973 59.4055 51.9633C59.4424 52.0444 59.4922 52.1206 59.5548 52.1819C59.6931 52.3226 59.8717 52.3961 60.0615 52.3961C60.0633 52.3961 60.0642 52.3961 60.0642 52.3961C60.3451 52.3961 60.5935 52.2187 60.6895 51.9548C60.7513 51.7859 60.7428 51.6063 60.6673 51.4423C60.5935 51.2824 60.4588 51.1583 60.2913 51.0969L59.342 50.7488C58.8153 50.5566 58.3953 50.1691 58.1597 49.6598C57.9228 49.1477 57.8988 48.5738 58.0904 48.0452Z" fill="#18323A"/>
</svg>
