<svg width="111" height="110" viewBox="0 0 111 110" fill="none" xmlns="http://www.w3.org/2000/svg">
<rect x="0.921875" width="110" height="110" rx="55" fill="#FEDE4B"/>
<path d="M70.5215 37H41.3234C39.1278 37 37.3418 38.7942 37.3418 41V62.3335C37.3418 64.5392 39.1278 66.3335 41.3234 66.3335H42.6506V71.6668C42.6506 72.2059 42.9731 72.6922 43.4699 72.8984C43.9685 73.1055 44.5378 72.9895 44.9165 72.6095L51.1631 66.3335H70.5215C72.7171 66.3335 74.5031 64.5392 74.5031 62.3335V41C74.5031 38.7942 72.7171 37 70.5215 37ZM50.6137 57.0001H46.6321V49.0001H50.6137V57.0001ZM65.142 50.833L63.64 56.121C63.4923 56.6414 63.0194 57.0001 62.4814 57.0001H53.2681V49.0001L57.6066 44.1276C57.8385 43.836 58.1897 43.6667 58.5609 43.6667C59.236 43.6667 59.904 44.2165 59.904 44.8947V49.0001H63.4042C64.6049 49.0001 65.472 49.6712 65.142 50.833Z" fill="#18323A"/>
</svg>
