<svg width="110" height="111" viewBox="0 0 110 111" fill="none" xmlns="http://www.w3.org/2000/svg">
<rect y="0.043457" width="110" height="110" rx="55" fill="#FEDE4B"/>
<path d="M49.998 50.3164H51.5727V47.2427C51.5727 45.3332 53.1012 43.7964 55.0001 43.7964C55.2317 43.7964 55.4633 43.8429 55.6948 43.8429C57.2696 44.1689 58.4275 45.6127 58.4275 47.2893V50.3164H60.0022C60.8822 50.3164 61.6233 49.5713 61.6233 48.6864V38.6735C61.6233 37.7886 60.8822 37.0435 60.0022 37.0435H49.998C49.118 37.0435 48.377 37.7886 48.377 38.6735V48.733C48.377 49.6178 49.118 50.3164 49.998 50.3164Z" fill="#18323A"/>
<path d="M44.6253 37.0435H34.6211C33.7411 37.0435 33 37.742 33 38.6735V48.733C33 49.6178 33.6947 50.363 34.6211 50.363H44.6253C45.5053 50.363 46.2463 49.6644 46.2463 48.733V38.6269C46.2 37.742 45.5053 37.0435 44.6253 37.0435ZM44.1158 48.2207H35.0842V39.1392H44.1158V48.2207Z" fill="#18323A"/>
<path d="M75.3792 37.0435H65.375C64.495 37.0435 63.7539 37.742 63.7539 38.6735V48.733C63.7539 49.6178 64.4486 50.363 65.375 50.363H75.3792C76.2592 50.363 77.0002 49.6644 77.0002 48.733V38.6269C77.0002 37.742 76.3055 37.0435 75.3792 37.0435ZM74.916 48.2207H65.8844V39.1392H74.916V48.2207Z" fill="#18323A"/>
<path d="M68.9405 56.3241C68.8015 56.3241 68.7089 56.2776 68.6163 56.2776C67.6437 56.2776 66.8563 57.0693 66.8563 58.0473V58.1404C66.8563 58.4199 66.6247 58.6527 66.3468 58.6527C66.0689 58.6527 65.8373 58.4199 65.8373 58.1404V56.9296C65.8373 55.9516 65.05 55.1598 64.0773 55.1598C63.9847 55.1598 63.8458 55.1598 63.7531 55.2064C62.9194 55.3461 62.3637 56.0913 62.3637 56.9761V57.3953C62.3637 57.6747 62.1321 57.9076 61.8542 57.9076C61.5763 57.9076 61.3447 57.6747 61.3447 57.3953V55.905C61.3447 54.927 60.5573 54.1353 59.5847 54.1353C59.5384 54.1353 59.5384 54.1353 59.4921 54.1353C58.5658 54.1818 57.8247 55.0201 57.8247 55.9981V56.7433C57.8247 57.0227 57.5931 57.2556 57.3152 57.2556C57.0373 57.2556 56.8058 57.0227 56.8058 56.7433V47.2892C56.8058 46.4043 56.2037 45.6592 55.4163 45.5195C55.2773 45.4729 55.1847 45.4729 55.0458 45.4729C54.0731 45.4729 53.2858 46.2646 53.2858 47.2426V60.8416C53.2858 61.0745 53.1005 61.2142 52.9152 61.2142C52.8226 61.2142 52.73 61.1676 52.6373 61.0745L50.1826 57.7679C49.9047 57.3953 49.5342 57.1159 49.1637 57.0227C48.9784 56.9761 48.7931 56.9296 48.6079 56.9296C48.2373 56.9296 47.8668 57.0227 47.5426 57.2556C46.7552 57.8144 46.5237 58.8856 46.9405 59.7239L51.7573 69.3177C52.9152 71.5997 55.231 73.0434 57.7784 73.0434H63.5679C65.3279 73.0434 66.9489 72.3914 68.2458 71.1805C69.5426 69.9697 70.2837 68.3397 70.33 66.6165C70.33 66.5234 70.33 66.4768 70.33 66.3836V58.1404C70.33 57.2556 69.7279 56.5104 68.9405 56.3241Z" fill="#18323A"/>
</svg>
